<svg fill="currentColor" viewBox="0 0 50 50" xmlns="http://www.w3.org/2000/svg" xmlns:xlink="http://www.w3.org/1999/xlink"><g id="SVGRepo_bgCarrier" stroke-width="0"></g><g id="SVGRepo_tracerCarrier" stroke-linecap="round" stroke-linejoin="round"></g><g id="SVGRepo_iconCarrier"><path d="M10.585938 11L0.5859375 21L49.414062 21L39.414062 11L10.585938 11 z M 0 22L0 28L50 28L50 22L0 22 z M 3 29L3 50L9 50L9 29L3 29 z M 11 29L11 43L17 43L17 29L11 29 z M 33 29L33 43L39 43L39 29L33 29 z M 41 29L41 50L47 50L47 29L41 29 z" fill="currentColor"></path></g></svg>

