<svg viewBox="0 0 512 512" version="1.1" id="Layer_1" xmlns="http://www.w3.org/2000/svg" xmlns:xlink="http://www.w3.org/1999/xlink" xml:space="preserve"><g id="SVGRepo_bgCarrier" stroke-width="0"></g><g id="SVGRepo_tracerCarrier" stroke-linecap="round" stroke-linejoin="round"></g><g id="SVGRepo_iconCarrier"> <g> <g> <path fill="currentColor" d="M344.122,126.785h0.242l3.579-1.753c27.045-13.255,41.94-32.143,41.94-53.18c0-12.539-5.731-36.258-44.117-54.221 C321.467,6.261,289.544,0,255.877,0s-65.59,6.261-89.887,17.632c-38.386,17.964-44.117,41.682-44.117,54.221 c0,21.037,14.895,39.924,41.94,53.18l3.579,1.753h0.486l-47.93,380.923L154.053,512l14.814-117.74h174.266L357.947,512 l34.104-4.292L344.122,126.785z M173.191,359.888l29.331-233.103h106.956l29.331,233.103H173.191z"></path> </g> </g> </g></svg>
