<svg fill="currentColor" height="200px" width="200px" version="1.1" id="Capa_1" xmlns="http://www.w3.org/2000/svg" xmlns:xlink="http://www.w3.org/1999/xlink" viewBox="0 0 421.746 421.746" xml:space="preserve"><g id="SVGRepo_bgCarrier" stroke-width="0"></g><g id="SVGRepo_tracerCarrier" stroke-linecap="round" stroke-linejoin="round"></g><g id="SVGRepo_iconCarrier"> <g> <g> <g> <path d="M188.324,149.697c-1.757-1.758-4.607-1.758-6.364,0l-2.059,2.06l-2.059-2.06c-1.758-1.758-4.607-1.758-6.364,0 c-1.758,1.757-1.758,4.606-0.001,6.363l2.06,2.061l-2.06,2.06c-1.757,1.757-1.757,4.606,0.001,6.363 c0.878,0.879,2.03,1.318,3.182,1.318c1.152,0,2.304-0.439,3.182-1.318l2.059-2.06l2.059,2.06c0.879,0.879,2.03,1.318,3.182,1.318 c1.151,0,2.303-0.439,3.182-1.318c1.758-1.757,1.758-4.607,0-6.363l-2.06-2.06l2.06-2.061 C190.082,154.304,190.082,151.454,188.324,149.697z"></path> <path d="M219.298,149.697c-1.758-1.758-4.607-1.758-6.364,0l-2.06,2.06l-2.06-2.06c-1.758-1.758-4.606-1.758-6.364,0 c-1.757,1.757-1.757,4.606,0,6.363l2.06,2.061l-2.06,2.06c-1.757,1.757-1.757,4.606,0,6.363c0.879,0.879,2.03,1.318,3.182,1.318 c1.151,0,2.303-0.439,3.182-1.318l2.06-2.06l2.06,2.06c0.879,0.879,2.03,1.318,3.182,1.318c1.152,0,2.303-0.439,3.182-1.318 c1.757-1.757,1.757-4.607,0-6.363l-2.06-2.06l2.06-2.061C221.056,154.304,221.056,151.454,219.298,149.697z"></path> <path d="M248.209,158.121l2.06-2.061c1.757-1.757,1.757-4.606-0.001-6.363c-1.757-1.758-4.607-1.758-6.364,0l-2.059,2.06 l-2.059-2.06c-1.757-1.758-4.606-1.758-6.364,0c-1.758,1.757-1.758,4.606-0.001,6.363l2.06,2.061l-2.06,2.06 c-1.757,1.757-1.757,4.606,0.001,6.363c0.878,0.879,2.03,1.318,3.182,1.318c1.152,0,2.304-0.439,3.182-1.318l2.059-2.06 l2.059,2.06c0.879,0.879,2.03,1.318,3.182,1.318c1.151,0,2.303-0.439,3.182-1.318c1.758-1.757,1.758-4.607,0.001-6.363 L248.209,158.121z"></path> </g> <g> <path d="M172.837,121.793c-1.757-1.758-4.607-1.758-6.364,0l-2.059,2.06l-2.059-2.06c-1.757-1.758-4.606-1.758-6.364,0 c-1.758,1.757-1.758,4.606-0.001,6.363l2.06,2.061l-2.06,2.06c-1.757,1.757-1.757,4.606,0.001,6.363 c0.878,0.879,2.03,1.318,3.182,1.318c1.152,0,2.304-0.439,3.182-1.318l2.059-2.06l2.059,2.06c0.879,0.879,2.03,1.318,3.182,1.318 c1.151,0,2.303-0.439,3.182-1.318c1.758-1.757,1.758-4.606,0-6.363l-2.06-2.06l2.06-2.061 C174.595,126.399,174.595,123.55,172.837,121.793z"></path> <path d="M203.811,121.793c-1.758-1.758-4.607-1.758-6.364,0l-2.059,2.06l-2.059-2.06c-1.757-1.758-4.606-1.758-6.364,0 c-1.757,1.757-1.757,4.606,0,6.363l2.06,2.061l-2.06,2.06c-1.757,1.757-1.757,4.606,0,6.363c0.879,0.879,2.03,1.318,3.182,1.318 c1.152,0,2.303-0.439,3.182-1.318l2.059-2.06l2.059,2.06c0.879,0.879,2.03,1.318,3.182,1.318c1.151,0,2.303-0.439,3.182-1.318 c1.757-1.757,1.757-4.606,0-6.363l-2.06-2.06l2.06-2.061C205.568,126.399,205.568,123.55,203.811,121.793z"></path> <path d="M234.782,121.792c-1.758-1.756-4.607-1.757-6.364,0.001l-2.058,2.059l-2.058-2.059c-1.758-1.758-4.606-1.757-6.364-0.001 c-1.757,1.757-1.758,4.606-0.001,6.364l2.06,2.061l-2.06,2.06c-1.757,1.758-1.756,4.607,0.001,6.364 c0.879,0.878,2.03,1.317,3.182,1.317c1.152,0,2.304-0.439,3.183-1.318l2.058-2.058l2.058,2.058 c0.879,0.879,2.031,1.318,3.183,1.318c1.151,0,2.303-0.439,3.182-1.317c1.757-1.757,1.758-4.606,0.001-6.364l-2.06-2.06 l2.06-2.061C236.54,126.398,236.54,123.549,234.782,121.792z"></path> <path d="M263.695,130.217l2.06-2.061c1.757-1.757,1.757-4.606,0-6.363c-1.757-1.758-4.607-1.758-6.364,0l-2.059,2.06l-2.059-2.06 c-1.757-1.758-4.606-1.758-6.364,0c-1.758,1.757-1.758,4.606,0,6.363l2.06,2.061l-2.06,2.06c-1.757,1.757-1.757,4.606,0,6.363 c0.879,0.879,2.03,1.318,3.182,1.318c1.152,0,2.304-0.439,3.182-1.318l2.059-2.06l2.059,2.06c0.879,0.879,2.03,1.318,3.182,1.318 c1.151,0,2.303-0.439,3.182-1.318c1.758-1.757,1.758-4.606,0-6.363L263.695,130.217z"></path> <path d="M188.324,104.372l-2.06-2.06l2.06-2.061c1.757-1.757,1.757-4.606,0-6.363c-1.757-1.758-4.607-1.758-6.364,0l-2.059,2.06 l-2.059-2.06c-1.758-1.758-4.607-1.758-6.364,0c-1.758,1.757-1.758,4.606-0.001,6.363l2.06,2.061l-2.06,2.06 c-1.757,1.757-1.757,4.606,0.001,6.363c0.878,0.879,2.03,1.318,3.182,1.318c1.152,0,2.304-0.439,3.182-1.318l2.059-2.06 l2.059,2.06c0.879,0.879,2.03,1.318,3.182,1.318c1.151,0,2.303-0.439,3.182-1.318 C190.082,108.979,190.082,106.129,188.324,104.372z"></path> </g> <g> <path d="M219.298,93.889c-1.758-1.758-4.607-1.758-6.364,0l-2.06,2.06l-2.06-2.06c-1.758-1.758-4.606-1.758-6.364,0 c-1.757,1.757-1.757,4.606,0,6.363l2.06,2.061l-2.06,2.06c-1.757,1.757-1.757,4.606,0,6.363c0.879,0.879,2.03,1.318,3.182,1.318 c1.151,0,2.303-0.439,3.182-1.318l2.06-2.06l2.06,2.06c0.879,0.879,2.03,1.318,3.182,1.318c1.152,0,2.303-0.439,3.182-1.318 c1.757-1.757,1.757-4.606,0-6.363l-2.06-2.06l2.06-2.061C221.056,98.495,221.056,95.646,219.298,93.889z"></path> <path d="M250.269,93.889c-1.757-1.758-4.607-1.758-6.364,0l-2.059,2.06l-2.059-2.06c-1.757-1.758-4.606-1.758-6.364,0 c-1.758,1.757-1.758,4.606-0.001,6.363l2.06,2.061l-2.06,2.06c-1.757,1.757-1.757,4.606,0.001,6.363 c0.878,0.879,2.03,1.318,3.182,1.318c1.152,0,2.304-0.439,3.182-1.318l2.059-2.06l2.059,2.06c0.879,0.879,2.03,1.318,3.182,1.318 c1.151,0,2.303-0.439,3.182-1.318c1.758-1.757,1.758-4.606,0.001-6.363l-2.06-2.06l2.06-2.061 C252.026,98.495,252.026,95.646,250.269,93.889z"></path> <path d="M234.783,76.468l-2.06-2.06l2.06-2.061c1.757-1.757,1.757-4.606-0.001-6.363c-1.757-1.758-4.607-1.758-6.364,0 l-2.059,2.06l-2.059-2.06c-1.758-1.758-4.607-1.758-6.364,0c-1.758,1.757-1.758,4.606,0,6.363l2.06,2.061l-2.06,2.06 c-1.757,1.757-1.757,4.606,0,6.363c0.878,0.879,2.03,1.318,3.182,1.318c1.152,0,2.304-0.439,3.182-1.318l2.059-2.06l2.059,2.06 c0.879,0.879,2.03,1.318,3.182,1.318c1.151,0,2.303-0.439,3.182-1.318C236.54,81.074,236.54,78.225,234.783,76.468z"></path> <path d="M263.695,74.408l2.06-2.061c1.757-1.757,1.757-4.606,0-6.363c-1.757-1.758-4.607-1.758-6.364,0l-2.059,2.06l-2.059-2.06 c-1.757-1.758-4.606-1.758-6.364,0c-1.758,1.757-1.758,4.606,0,6.363l2.06,2.061l-2.06,2.06c-1.757,1.757-1.757,4.606,0,6.363 c0.879,0.879,2.03,1.318,3.182,1.318c1.152,0,2.304-0.439,3.182-1.318l2.059-2.06l2.059,2.06c0.879,0.879,2.03,1.318,3.182,1.318 c1.151,0,2.303-0.439,3.182-1.318c1.758-1.757,1.758-4.606,0-6.363L263.695,74.408z"></path> </g> <g> <path d="M172.837,65.984c-1.757-1.758-4.607-1.758-6.364,0l-2.059,2.06l-2.059-2.06c-1.757-1.758-4.606-1.758-6.364,0 c-1.758,1.757-1.758,4.606-0.001,6.363l2.06,2.061l-2.06,2.06c-1.757,1.757-1.757,4.606,0.001,6.363 c0.878,0.879,2.03,1.318,3.182,1.318s2.304-0.439,3.182-1.318l2.059-2.06l2.059,2.06c0.879,0.879,2.03,1.318,3.182,1.318 c1.151,0,2.303-0.439,3.182-1.318c1.758-1.757,1.758-4.606,0-6.363l-2.06-2.06l2.06-2.061 C174.595,70.591,174.595,67.741,172.837,65.984z"></path> <path d="M203.811,65.984c-1.758-1.758-4.606-1.758-6.364,0l-2.06,2.06l-2.059-2.06c-1.757-1.758-4.606-1.758-6.364,0 c-1.757,1.757-1.757,4.606,0,6.363l2.06,2.061l-2.06,2.06c-1.757,1.757-1.757,4.606,0,6.363c0.879,0.879,2.03,1.318,3.182,1.318 c1.152,0,2.303-0.439,3.182-1.318l2.059-2.06l2.06,2.06c0.879,0.879,2.03,1.318,3.182,1.318c1.151,0,2.303-0.439,3.182-1.318 c1.757-1.757,1.757-4.606,0-6.363l-2.06-2.06l2.06-2.061C205.568,70.591,205.568,67.741,203.811,65.984z"></path> <path d="M188.324,48.563l-2.06-2.06l2.06-2.06c1.757-1.757,1.757-4.607,0-6.363c-1.757-1.758-4.607-1.758-6.364,0l-2.059,2.06 l-2.059-2.06c-1.758-1.758-4.607-1.758-6.364,0c-1.758,1.757-1.758,4.606-0.001,6.363l2.06,2.06l-2.06,2.06 c-1.757,1.757-1.757,4.606,0.001,6.363c0.878,0.879,2.03,1.318,3.182,1.318c1.152,0,2.304-0.439,3.182-1.318l2.059-2.06 l2.059,2.06c0.879,0.879,2.03,1.318,3.182,1.318c1.151,0,2.303-0.439,3.182-1.318C190.082,53.17,190.082,50.32,188.324,48.563z"></path> <path d="M219.298,38.08c-1.758-1.758-4.607-1.758-6.364,0l-2.06,2.06l-2.06-2.06c-1.758-1.758-4.606-1.758-6.364,0 c-1.757,1.757-1.757,4.606,0,6.363l2.06,2.06l-2.06,2.06c-1.757,1.757-1.757,4.606,0,6.363c0.879,0.879,2.03,1.318,3.182,1.318 c1.151,0,2.303-0.439,3.182-1.318l2.06-2.06l2.06,2.06c0.879,0.879,2.03,1.318,3.182,1.318c1.152,0,2.303-0.439,3.182-1.318 c1.757-1.757,1.757-4.606,0-6.363l-2.06-2.06l2.06-2.06C221.056,42.687,221.056,39.837,219.298,38.08z"></path> <path d="M248.209,46.504l2.06-2.06c1.757-1.757,1.757-4.607-0.001-6.363c-1.757-1.758-4.607-1.758-6.364,0l-2.059,2.06 l-2.059-2.06c-1.757-1.758-4.606-1.758-6.364,0c-1.758,1.757-1.758,4.606-0.001,6.363l2.06,2.06l-2.06,2.06 c-1.757,1.757-1.757,4.606,0.001,6.363c0.878,0.879,2.03,1.318,3.182,1.318c1.152,0,2.304-0.439,3.182-1.318l2.059-2.06 l2.059,2.06c0.879,0.879,2.03,1.318,3.182,1.318c1.151,0,2.303-0.439,3.182-1.318c1.758-1.757,1.758-4.606,0.001-6.363 L248.209,46.504z"></path> </g> </g> <path d="M334.832,390.805v-16.257c0-1.858-1.142-3.525-2.875-4.196c-50.622-19.608-90.925-28.379-103.037-30.772v-43.268 c0-2.485-2.015-4.5-4.5-4.5h-2.006V266.78h58.847c10.014,0,18.318-9.367,21.419-22.773c0.502,0.053,1.007,0.087,1.515,0.087 c8.087,0,14.665-6.579,14.665-14.665v-51.581c5.157-3.871,8.514-10.016,8.514-16.945v-3.036c0-5.556-2.165-10.604-5.674-14.388 c-0.04-0.053-0.072-0.108-0.116-0.159c-0.608-0.714-13.858-16.074-29.073-18.759l-3.784-85.405C288.652,4.653,249.337,0,210.878,0 h-0.011c-38.458,0-77.772,4.654-77.849,39.156l-3.785,85.405c-15.215,2.684-28.465,18.044-29.073,18.759 c-0.036,0.042-0.058,0.089-0.092,0.131c-3.523,3.788-5.698,8.847-5.698,14.415v3.036c0,6.929,3.356,13.074,8.513,16.945v51.581 c0,8.086,6.579,14.665,14.666,14.665c0.509,0,1.013-0.037,1.516-0.09c3.101,13.408,11.406,22.776,21.422,22.776h58.845v25.031 h-2.006c-2.485,0-4.5,2.015-4.5,4.5v43.268c-12.113,2.394-52.415,11.165-103.036,30.772c-1.732,0.671-2.874,2.338-2.874,4.196 v16.256c-3.868,3.21-6.336,8.05-6.336,13.457c0,9.642,7.844,17.485,17.486,17.485c9.642,0,17.485-7.844,17.485-17.485 c0-3.563-1.076-6.876-2.913-9.643c8.563-3.02,40.442-13.234,81.27-13.785l3.42,12.387c-2.461,3.013-3.942,6.857-3.942,11.041 c0,9.642,7.844,17.485,17.486,17.485c9.642,0,17.486-7.844,17.486-17.485c0-4.185-1.481-8.028-3.941-11.041l3.42-12.387 c40.752,0.552,72.693,10.77,81.269,13.788c-1.836,2.766-2.912,6.078-2.912,9.64c0,9.642,7.844,17.485,17.486,17.485 c9.641,0,17.484-7.844,17.484-17.485C341.166,398.854,338.698,394.015,334.832,390.805z M98.066,412.746 c-4.679,0-8.486-3.807-8.486-8.485c0-4.68,3.807-8.486,8.486-8.486c4.679,0,8.485,3.807,8.485,8.486 C106.552,408.94,102.745,412.746,98.066,412.746z M192.827,371.84c-45.359,0.76-79.199,12.76-84.973,14.935H95.916v-9.137 c46.5-17.772,83.636-26.18,96.911-28.881V371.84z M210.873,386.774c-2.004,0-3.922,0.355-5.717,0.979l-3.329-12.059v-27.887h18.094 v27.882l-3.331,12.063C214.795,387.13,212.877,386.774,210.873,386.774z M219.921,300.811v37.997h-18.095v-37.997H219.921z M208.332,291.811V266.78h5.083v25.031H208.332z M309.861,229.429c0,3.124-2.542,5.665-5.665,5.665 c-0.096,0-0.189-0.015-0.285-0.02c0.022-0.424,0.08-9.447,0.08-9.447c0-3.679-1.843-7.041-5.461-10.08v-34.888 c2.371,0.927,4.944,1.445,7.642,1.445c1.26,0,2.488-0.131,3.688-0.343V229.429z M318.375,157.866v3.036 c0,6.729-5.474,12.202-12.202,12.202c-5.865,0-10.774-4.161-11.938-9.685l-0.254-5.743c0.103-6.641,5.528-12.014,12.192-12.014 C312.901,145.663,318.375,151.138,318.375,157.866z M300.756,137.391c-2.77,0.734-5.307,2.027-7.509,3.733l-0.321-7.246 C295.58,134.619,298.238,135.877,300.756,137.391z M288.249,199.177c0.458-0.512,0.884-1.03,1.283-1.551v12.544 c-3.153-1.405-6.815-2.714-10.99-3.923C282.398,204.453,285.641,202.096,288.249,199.177z M135.751,180.549 c0.011-0.102,6.263-141.092,6.263-141.092c0.003-0.067,0.004-0.133,0.004-0.199c0-20.538,19.31-29.673,64.355-30.23v3.271 c0,2.485,2.015,4.5,4.5,4.5c2.485,0,4.5-2.015,4.5-4.5V9.027c45.045,0.558,64.355,9.692,64.355,30.23 c0,0.066,0.001,0.133,0.004,0.199c0,0,6.251,140.989,6.262,141.092c0.008,0.067,0.625,6.941-4.458,12.632 c-4.897,5.481-13.455,8.282-25.43,8.334c-12.346-1.85-26.23-2.921-40.733-3.104v-5.162c0-2.485-2.015-4.5-4.5-4.5 c-2.485,0-4.5,2.015-4.5,4.5v5.162c-14.503,0.183-28.387,1.254-40.732,3.104c-11.896-0.051-20.423-2.816-25.337-8.229 C135.135,187.593,135.727,180.8,135.751,180.549z M132.216,197.627c0.398,0.521,0.824,1.037,1.281,1.549 c2.611,2.923,5.879,5.266,9.74,7.063c-4.188,1.211-7.86,2.523-11.021,3.931V197.627z M128.82,133.883l-0.32,7.222 c-2.204-1.701-4.747-2.982-7.515-3.715C123.506,135.875,126.166,134.621,128.82,133.883z M123.216,215.546 c-3.618,3.04-5.461,6.402-5.461,10.081c0,0,0.059,9.023,0.081,9.447c-0.096,0.005-0.189,0.02-0.286,0.02 c-3.124,0-5.666-2.541-5.666-5.665v-47.667c1.201,0.212,2.429,0.343,3.689,0.343c2.696,0,5.27-0.515,7.643-1.439V215.546z M115.573,173.105c-6.729,0-12.202-5.474-12.202-12.202v-3.036c0-6.729,5.474-12.203,12.202-12.203 c6.665,0,12.091,5.374,12.192,12.015l-0.254,5.741C126.348,168.943,121.439,173.105,115.573,173.105z M126.755,225.627 c0-6.192,29.691-18.244,84.119-18.244c54.427,0,84.118,12.052,84.118,18.244v3.422H126.755V225.627z M140.487,257.78 c-5.622,0-11.796-7.86-13.356-19.731h167.484c-1.559,11.871-7.733,19.731-13.354,19.731H140.487z M210.873,412.746 c-4.679,0-8.486-3.807-8.486-8.485c0-4.68,3.807-8.486,8.486-8.486c4.679,0,8.486,3.807,8.486,8.486 C219.359,408.94,215.552,412.746,210.873,412.746z M228.921,348.757c13.275,2.701,50.412,11.108,96.911,28.881v9.137h-11.939 c-5.774-2.175-39.613-14.175-84.972-14.935V348.757z M323.682,412.746c-4.679,0-8.486-3.807-8.486-8.485 c0-4.68,3.807-8.486,8.486-8.486c4.678,0,8.484,3.807,8.484,8.486C332.166,408.94,328.36,412.746,323.682,412.746z"></path> </g> </g></svg>

